<svg width="8" height="8" viewBox="0 0 8 8" fill="none" xmlns="http://www.w3.org/2000/svg">
<g clip-path="url(#clip0_1233_1842)">
<path d="M7.50983 3.29799L7.15303 2.94079C7.0417 2.82897 6.9789 2.67778 6.97823 2.51999V2.01439C6.97781 1.75142 6.87316 1.49935 6.68722 1.31341C6.50127 1.12746 6.2492 1.02281 5.98623 1.02239H5.48023C5.32238 1.02162 5.17119 0.958669 5.05943 0.847189L4.70223 0.490389C4.51594 0.304408 4.26347 0.199951 4.00023 0.199951C3.737 0.199951 3.48452 0.304408 3.29823 0.490389L2.94103 0.847189C2.82921 0.958523 2.67803 1.02132 2.52023 1.02199H2.01463C1.7516 1.02241 1.49947 1.12712 1.31351 1.31315C1.12755 1.49918 1.02295 1.75135 1.02263 2.01439V2.51999C1.02186 2.67784 0.958914 2.82903 0.847433 2.94079L0.490633 3.29799C0.304652 3.48428 0.200195 3.73675 0.200195 3.99999C0.200195 4.26322 0.304652 4.5157 0.490633 4.70199L0.847433 5.05919C0.958767 5.17101 1.02157 5.32219 1.02223 5.47999V5.98559C1.02255 6.24869 1.12721 6.50093 1.31325 6.68697C1.49929 6.87301 1.75153 6.97767 2.01463 6.97799H2.52023C2.67803 6.97865 2.82921 7.04146 2.94103 7.15279L3.29823 7.50959C3.48452 7.69557 3.737 7.80003 4.00023 7.80003C4.26347 7.80003 4.51594 7.69557 4.70223 7.50959L5.05943 7.15279C5.17126 7.04146 5.32244 6.97865 5.48023 6.97799H5.98583C6.24887 6.97767 6.50104 6.87307 6.68707 6.68711C6.87311 6.50116 6.97781 6.24902 6.97823 5.98599V5.47999C6.9789 5.32219 7.0417 5.17101 7.15303 5.05919L7.50983 4.70199C7.69581 4.5157 7.80027 4.26322 7.80027 3.99999C7.80027 3.73675 7.69581 3.48428 7.50983 3.29799Z" fill="#D03D5A"/>
<path d="M3.20003 5.19998C3.09395 5.19996 2.99223 5.1578 2.91723 5.08278L2.11723 4.28278C2.07903 4.24588 2.04856 4.20174 2.02759 4.15294C2.00663 4.10414 1.99559 4.05165 1.99513 3.99854C1.99467 3.94543 2.00479 3.89276 2.0249 3.8436C2.04502 3.79444 2.07472 3.74978 2.11227 3.71222C2.14983 3.67466 2.19449 3.64496 2.24365 3.62485C2.29281 3.60474 2.34548 3.59462 2.39859 3.59508C2.4517 3.59554 2.50419 3.60657 2.55299 3.62754C2.6018 3.6485 2.64593 3.67897 2.68283 3.71718L3.25083 4.28518L5.37803 2.86718C5.4663 2.8083 5.57433 2.7869 5.67838 2.80768C5.78243 2.82845 5.87395 2.88971 5.93283 2.97798C5.99171 3.06624 6.01311 3.17428 5.99234 3.27833C5.97156 3.38237 5.9103 3.4739 5.82203 3.53278L3.42203 5.13278C3.35629 5.17661 3.27905 5.2 3.20003 5.19998Z" fill="white"/>
</g>
<defs>
<clipPath id="clip0_1233_1842">
<rect width="8" height="8" fill="white"/>
</clipPath>
</defs>
</svg>
